<svg width="714" height="524" viewBox="0 0 714 524" fill="none" xmlns="http://www.w3.org/2000/svg">
<path d="M435.563 305.746H284.803C291.82 231.786 296.206 161.877 284.803 116.279H435.563C432.97 175.315 433.272 238.95 435.563 305.746Z" fill="#3F3D56"/>
<path d="M418.654 239.063H312.747V240.958H418.654V239.063Z" fill="#FFCC63"/>
<path d="M418.654 247.589H312.747V249.484H418.654V247.589Z" fill="#FFCC63"/>
<path d="M418.654 256.116H312.747V258.011H418.654V256.116Z" fill="#FFCC63"/>
<path d="M418.654 264.643H312.747V266.537H418.654V264.643Z" fill="#FFCC63"/>
<path d="M418.654 273.169H312.747V275.064H418.654V273.169Z" fill="#FFCC63"/>
<path d="M478.378 288.83C477.359 288.85 476.373 289.179 475.564 289.769C473.166 283.759 469.453 279.897 465.282 279.897C461.111 279.897 457.398 283.759 455 289.769C454.192 289.179 453.206 288.85 452.186 288.83C447.447 288.83 443.606 296.429 443.606 305.804H486.959C486.959 296.429 483.117 288.83 478.378 288.83Z" fill="#FFCC63"/>
<path d="M484.961 305.804H423.623V304.856C423.623 291.298 429.221 280.676 436.367 280.676C437.542 280.684 438.697 280.968 439.728 281.503C443.31 273.189 448.577 268.449 454.292 268.449C460.006 268.449 465.274 273.189 468.856 281.503C469.887 280.968 471.042 280.684 472.217 280.676C479.363 280.676 484.961 291.298 484.961 304.856L484.961 305.804ZM425.632 303.909H482.952C482.703 292.248 477.889 282.571 472.217 282.571C471.032 282.6 469.888 282.987 468.952 283.676L467.894 284.403L467.432 283.244C464.16 275.046 459.37 270.344 454.292 270.344C449.213 270.344 444.424 275.046 441.152 283.244L440.69 284.403L439.632 283.676C438.696 282.987 437.552 282.6 436.367 282.571C430.695 282.571 425.881 292.248 425.632 303.909V303.909Z" fill="#3F3D56"/>
<path d="M278.554 288.83C277.534 288.85 276.548 289.179 275.74 289.769C273.342 283.759 269.629 279.897 265.458 279.897C261.287 279.897 257.574 283.759 255.176 289.769C254.367 289.179 253.381 288.85 252.362 288.83C247.623 288.83 243.781 296.429 243.781 305.804H287.134C287.134 296.429 283.293 288.83 278.554 288.83Z" fill="#FFCC63"/>
<path d="M285.136 305.804H223.799V304.856C223.799 291.298 229.397 280.676 236.542 280.676C237.717 280.684 238.872 280.968 239.903 281.503C243.485 273.189 248.753 268.449 254.467 268.449C260.182 268.449 265.45 273.189 269.032 281.503C270.063 280.968 271.218 280.684 272.393 280.676C279.538 280.676 285.136 291.298 285.136 304.856L285.136 305.804ZM225.807 303.909H283.128C282.879 292.248 278.064 282.571 272.393 282.571C271.208 282.6 270.064 282.987 269.127 283.676L268.069 284.403L267.607 283.244C264.335 275.046 259.546 270.344 254.467 270.344C249.389 270.344 244.6 275.046 241.328 283.244L240.866 284.403L239.808 283.676C238.872 282.987 237.727 282.6 236.542 282.571C230.871 282.571 226.056 292.248 225.807 303.909L225.807 303.909Z" fill="#3F3D56"/>
<path d="M714 184.686C714.02 204.635 707.829 224.146 696.203 240.773C684.577 257.399 668.034 270.402 648.647 278.15C629.261 285.899 607.893 288.048 587.224 284.329C566.554 280.61 547.502 271.188 532.456 257.245C517.41 243.301 507.04 225.456 502.646 205.947C498.251 186.438 500.028 166.132 507.753 147.577C515.478 129.021 528.807 113.04 546.071 101.638C563.334 90.2364 583.763 83.9203 604.796 83.482C605.128 83.4752 605.46 83.4684 605.799 83.4615C606.275 83.4547 606.758 83.4547 607.242 83.4547C608.454 83.4547 609.665 83.4752 610.87 83.5162C613.525 83.5983 616.15 83.7716 618.747 84.0361C620.247 84.1866 621.726 84.3712 623.205 84.5764C623.371 84.6038 623.544 84.6243 623.71 84.6517C629.812 85.5437 635.82 86.9421 641.664 88.8309C662.762 95.6535 681.08 108.564 694.051 125.753C707.023 142.943 713.998 163.549 714 184.686V184.686Z" fill="#FFCC63"/>
<path d="M525.553 166.888C525.764 166.571 525.215 165.882 524.325 165.348C523.436 164.814 522.544 164.637 522.333 164.954C522.121 165.27 522.671 165.959 523.56 166.493C524.45 167.027 525.342 167.204 525.553 166.888Z" fill="#3F3D56"/>
<path d="M522.433 184.266C522.906 183.557 523.657 183.056 524.52 182.872C525.383 182.688 526.288 182.837 527.036 183.286L569.307 208.668C570.054 209.117 570.583 209.829 570.777 210.647C570.971 211.466 570.814 212.324 570.34 213.033L522.433 184.266Z" fill="#D0CDE1"/>
<path d="M518.434 185.608L519.764 183.617C520.087 183.133 520.601 182.79 521.19 182.664C521.78 182.539 522.399 182.641 522.909 182.947L571.039 211.847C571.338 212.027 571.597 212.261 571.802 212.536C572.006 212.811 572.151 213.121 572.228 213.449C572.306 213.777 572.315 214.116 572.254 214.448C572.194 214.779 572.065 215.096 571.875 215.38L570.77 217.034L518.434 185.608Z" fill="#2F2E41"/>
<path d="M525.6 186.702L525.09 187.466L528.311 189.4L528.821 188.636L525.6 186.702Z" fill="#D0CDE1"/>
<path d="M530.028 189.361L529.518 190.125L532.739 192.059L533.249 191.295L530.028 189.361Z" fill="#D0CDE1"/>
<path d="M593.821 96.6116C610.415 96.6116 623.867 83.8563 623.867 68.1219C623.867 52.3874 610.415 39.6322 593.821 39.6322C577.228 39.6322 563.776 52.3874 563.776 68.1219C563.776 83.8563 577.228 96.6116 593.821 96.6116Z" fill="#FFB8B8"/>
<path d="M595.654 88.2731C595.654 88.2731 610.31 110.162 606.646 116.415C602.982 122.669 591.623 139.694 591.623 139.694C591.623 139.694 642.187 104.255 635.592 96.6116C635.592 96.6116 620.569 84.4513 619.836 76.8077L595.654 88.2731Z" fill="#FFB8B8"/>
<path d="M636.139 282.169C611.763 288.624 585.765 286.698 562.742 276.731L565.051 218.25L565.224 213.701L565.289 212.224L565.368 210.049L565.426 208.66C565.426 208.66 565.519 208.653 565.7 208.646C566.19 208.612 567.323 208.537 568.946 208.448C570.829 208.345 573.36 208.215 576.311 208.099C577.01 208.072 577.732 208.044 578.475 208.01C594.012 207.463 618.278 207.347 621.488 211.786L621.892 214.399L622.541 218.619L623.869 227.244C623.869 227.244 638.959 255.698 636.139 282.169Z" fill="#2F2E41"/>
<path d="M663.805 132.05L637.849 186.504L626.578 210.143L622.401 218.909L561.944 218.214L568.173 178.259C559.379 156.718 580.265 148.032 580.265 148.032L597.852 130.261V133.092C597.852 133.092 615.073 113.636 622.767 102.518C630.462 91.4001 641.088 95.5693 641.088 95.5693C659.408 93.8321 663.805 132.05 663.805 132.05Z" fill="#575A89"/>
<path opacity="0.2" d="M637.849 186.504L626.578 210.143C622.958 203.722 620.203 196.451 620.203 192.156C620.203 180.344 632.66 186.597 632.66 186.597C632.66 186.597 622.584 134.308 622.584 118.674C622.584 108.289 631.715 154.376 637.849 186.504Z" fill="black"/>
<path d="M627.897 190.419L573.303 189.377C573.303 189.377 533.365 192.504 539.227 207.791C545.09 223.078 576.967 207.791 576.967 207.791L640.721 217.172L627.897 190.419Z" fill="#FFB8B8"/>
<path d="M638.156 98.3488C638.156 98.3488 619.103 99.7385 619.103 115.373C619.103 131.008 636.324 186.597 636.324 186.597C636.324 186.597 623.867 180.344 623.867 192.156C623.867 203.969 644.752 238.365 646.95 215.434C646.95 215.434 678.461 230.027 676.629 202.579C674.797 175.132 655.011 117.11 655.011 117.11C655.011 117.11 652.813 97.3065 638.156 98.3488Z" fill="#575A89"/>
<path d="M594.821 67.3493C592.717 65.4186 592.756 62.1622 591.06 59.8988C588.397 56.3445 582.853 56.5828 578.301 57.1964C575.276 57.6042 572.206 58.0239 569.398 59.1581C568.141 59.6484 567.022 60.4088 566.128 61.3794C565.234 62.35 564.59 63.5042 564.247 64.751C563.89 66.1511 563.104 62.1785 562.304 57.0332C561.485 51.7834 562.444 46.4224 565.043 41.7226C567.643 37.0227 571.749 33.2268 576.77 30.8817C576.829 30.8539 576.889 30.8265 576.947 30.7995C582.096 28.4269 587.49 26.3316 593.181 25.7428C598.872 25.1541 604.944 26.2201 609.407 29.6192C611.447 31.1727 613.106 33.167 615.293 34.5288C619.136 36.9214 624.002 37.0373 628.568 37.5417C633.732 38.1122 638.908 39.31 643.366 41.8463C647.824 44.3826 651.517 48.3839 652.756 53.1715C654.202 58.7561 651.843 65.3578 646.052 67.7812C645.041 68.1847 644.144 68.8086 643.435 69.6022C638.68 75.114 646.356 78.1297 647.469 82.9273C648.398 86.9306 644.338 90.5551 640.175 91.6574C632.42 93.7104 623.394 89.6211 620.206 82.6108C618.778 79.4704 618.453 75.9964 618.064 72.5964C617.619 68.7043 606.854 61.6551 614.122 66.9576C615.532 67.9591 616.643 69.2916 617.345 70.8238C619.556 75.8424 614.968 78.691 612.507 82.2741C611.167 84.2893 610.45 86.6203 610.436 89.0025C610.423 91.3847 611.114 93.7227 612.431 95.7515C606.051 92.5909 602.825 84.6689 605.308 78.2627C605.968 76.5599 606.968 74.9857 607.568 73.263C608.503 70.5748 607.676 65.3508 603.492 66.4099C600.505 67.1658 597.953 70.2235 594.821 67.3493Z" fill="#2F2E41"/>
<path d="M214.112 393.228C214.116 413.561 207.662 433.425 195.591 450.23C183.52 467.036 166.391 480.005 146.436 487.448C144.871 488.044 143.277 488.598 141.675 489.111C139.886 489.692 138.078 490.225 136.251 490.711C134.981 491.046 133.7 491.361 132.406 491.655C112.933 496.08 92.5429 495.255 73.5376 489.275C72.0444 488.803 70.5657 488.297 69.1014 487.77C67.1321 487.052 65.1845 486.279 63.273 485.451C63.1287 485.396 62.9916 485.335 62.8546 485.273C62.1044 484.945 61.3758 484.617 60.6329 484.268H60.6257C59.6086 483.803 58.6011 483.319 57.6033 482.818C55.3094 481.669 53.066 480.444 50.8732 479.145C49.7335 478.474 48.6106 477.779 47.5045 477.059C30.0961 465.914 16.5434 450.145 8.54456 431.728C0.545685 413.312 -1.54363 393.067 2.53839 373.529C6.62042 353.991 16.6922 336.031 31.4919 321.897C46.2916 307.763 65.1608 298.086 85.7355 294.076C87.6182 293.707 89.5201 293.388 91.4413 293.118C92.6459 292.941 93.865 292.79 95.0841 292.66C95.9569 292.564 96.8297 292.476 97.717 292.407H97.7242C100.097 292.202 102.492 292.074 104.909 292.024C105.241 292.017 105.572 292.01 105.911 292.004C106.099 292.004 106.286 291.997 106.474 292.004H106.481C106.77 291.997 107.058 291.997 107.354 291.997C108.566 291.997 109.778 292.017 110.982 292.058C113.637 292.14 116.263 292.314 118.859 292.578C120.36 292.729 121.839 292.913 123.317 293.118C123.483 293.146 123.656 293.166 123.822 293.194C124.313 293.269 124.81 293.344 125.301 293.426C126.34 293.584 127.371 293.768 128.403 293.967C129.369 294.151 130.329 294.343 131.288 294.548C134.834 295.315 138.335 296.258 141.776 297.373C165.101 304.934 184.959 319.896 197.998 339.733C198.365 340.287 198.726 340.848 199.08 341.415C199.354 341.839 199.613 342.264 199.873 342.694C199.967 342.838 200.053 342.982 200.133 343.125C200.19 343.207 200.234 343.29 200.284 343.372C200.76 344.158 201.222 344.958 201.669 345.759C209.865 360.373 214.138 376.676 214.112 393.228Z" fill="#FFCC63"/>
<path d="M165.232 357.072C165.232 357.072 190.013 336.415 199.219 350.854C208.424 365.292 173.427 371.136 171.405 370.39C169.383 369.643 165.232 357.072 165.232 357.072Z" fill="#A0616A"/>
<path d="M117.03 372.392C117.03 372.392 146.356 363.349 151.357 359.676C156.358 356.003 160.965 353.288 161.976 353.661C162.987 354.035 169.616 352.067 169.616 352.067L177.471 372.63C177.471 372.63 146.123 380.926 145.336 382.843C144.549 384.76 117.03 372.392 117.03 372.392Z" fill="#575A89"/>
<path d="M132.406 491.655C112.933 496.08 92.5427 495.255 73.5374 489.275L74.8358 477.633L76.0404 466.758L94.11 440.266L99.9023 431.778L123.771 440.006L126.202 454.541L130.076 477.722L132.406 491.655Z" fill="#2F2E41"/>
<path d="M146.436 487.448C144.871 488.044 143.276 488.598 141.675 489.111C139.886 489.692 138.078 490.226 136.251 490.711C134.981 491.046 133.699 491.361 132.406 491.655C112.933 496.08 92.5426 495.255 73.5373 489.275C72.0441 488.803 70.5654 488.297 69.1011 487.77C69.3009 491.82 69.1707 495.879 68.7116 499.911C66.6278 495.186 64.8123 490.36 63.2727 485.451C63.1645 485.123 63.0635 484.795 62.9625 484.466C62.4576 482.811 62.0103 481.231 61.6064 479.747C61.1447 478.03 60.748 476.436 60.4162 474.979C59.0961 469.261 58.6777 465.725 58.6777 465.725L72.7799 437.955L75.6003 438.262L76.7689 438.385L83.838 439.152L94.1099 440.266L110.751 442.065L126.202 454.541L140.045 465.725C140.045 465.725 141.199 469.446 143.009 475.609C143.99 478.919 145.152 482.934 146.436 487.448Z" fill="#2F2E41"/>
<path d="M121.204 296.566C134.984 296.566 146.155 285.973 146.155 272.907C146.155 259.84 134.984 249.247 121.204 249.247C107.423 249.247 96.2523 259.84 96.2523 272.907C96.2523 285.973 107.423 296.566 121.204 296.566Z" fill="#A0616A"/>
<path d="M100.817 274.097L87.7583 300.586L124.42 324.666C124.42 324.666 120.105 295.988 128.235 288.726C136.365 281.464 100.817 274.097 100.817 274.097Z" fill="#A0616A"/>
<path d="M129.195 326.853C129.195 326.853 111.838 292.906 97.7344 292.906C83.6313 292.906 46.7464 316.566 47.8313 321.709C48.9161 326.853 48.9161 327.881 48.9161 330.968C48.9161 334.054 41.3221 334.054 47.8313 336.111C54.3404 338.168 55.4252 340.226 55.4252 340.226L50.001 471.898C50.001 471.898 73.8677 480.127 82.5465 477.041C91.2253 473.955 99.9041 453.381 99.9041 453.381C99.9041 453.381 97.7344 481.156 106.413 480.127C115.092 479.099 147.638 477.041 148.722 472.927C149.807 468.812 142.213 378.287 142.213 378.287L129.195 326.853Z" fill="#575A89"/>
<path d="M68.7116 503.4V503.414C67.6007 512.532 64.232 521.772 55.4245 523.735C40.4639 527.073 46.2058 497.921 48.9036 486.793C49.5384 484.201 50 482.586 50 482.586L50.8728 482.634L61.6064 483.236L68.4447 483.619C68.4447 483.619 68.726 485.5 68.9424 488.448C69.0073 489.303 69.065 490.247 69.1011 491.259C69.3009 495.31 69.1707 499.369 68.7116 503.4Z" fill="#A0616A"/>
<path d="M72.7828 318.623L41.3221 394.746C41.3221 394.746 36.9827 402.976 41.3221 409.148C45.6615 415.32 39.1524 452.353 43.4918 460.582C47.8312 468.812 47.8312 483.213 47.8312 483.213L72.7828 485.271L78.207 394.746L106.413 337.14C106.413 337.14 104.243 313.48 72.7828 318.623Z" fill="#575A89"/>
<path opacity="0.1" d="M80.9192 316.051C80.9192 316.051 61.3919 321.195 54.8828 339.711L80.9192 316.051Z" fill="black"/>
<path d="M104.852 283.701C107.28 283.563 109.65 284.341 112.061 284.645C120.686 285.731 129.659 279.796 131.563 271.746C131.716 270.674 132.053 269.633 132.56 268.664C133.888 266.609 136.911 266.217 139.403 266.69C141.895 267.162 144.258 268.268 146.796 268.394C150.714 268.589 154.476 266.302 156.565 263.152C158.653 260.001 159.245 256.125 158.963 252.414L157.084 254.283C156.321 252.752 156.026 251.048 156.233 249.366C155.238 249.115 154.191 249.11 153.193 249.352C152.195 249.594 151.279 250.075 150.533 250.749C148.877 250.916 150.127 247.836 148.896 246.771C148.381 246.325 147.591 246.409 146.893 246.416C143.37 246.448 140.519 243.892 137.742 241.835C132.93 238.278 127.304 235.844 121.317 234.73C117.338 233.994 113.106 233.876 109.333 235.281C106.233 236.435 103.639 238.537 101.239 240.725C95.3312 246.112 90.0994 252.442 87.6415 259.856C85.6433 265.929 85.5867 272.427 87.4788 278.531C88.4692 281.7 91.4541 292.556 95.8238 292.809C101.314 293.126 98.0179 284.087 104.852 283.701Z" fill="#2F2E41"/>
<path opacity="0.1" d="M106.625 359.371L81.0746 394.905L72.9033 477.443L106.625 359.371Z" fill="black"/>
<path d="M208.422 338.334C209.033 337.522 209.269 336.687 208.947 336.469C208.626 336.252 207.87 336.734 207.258 337.547C206.647 338.359 206.412 339.194 206.733 339.412C207.054 339.629 207.811 339.147 208.422 338.334Z" fill="#3F3D56"/>
<path d="M174.349 376.617C173.628 376.129 173.142 375.391 172.996 374.563C172.85 373.736 173.057 372.888 173.571 372.205L202.631 333.583C203.145 332.901 203.923 332.439 204.796 332.301C205.668 332.163 206.563 332.359 207.283 332.846V332.846L174.349 376.617L174.349 376.617Z" fill="#D0CDE1"/>
<path d="M175.542 380.477L173.86 379.339C173.277 378.945 172.884 378.347 172.766 377.677C172.648 377.008 172.815 376.321 173.231 375.768L206.318 331.795C206.669 331.328 207.201 331.013 207.798 330.919C208.394 330.824 209.005 330.958 209.497 331.291L211.521 332.66L175.542 380.477L175.542 380.477Z" fill="#2F2E41"/>
<path d="M203.105 339.177L203.88 339.702L206.095 336.76L205.319 336.235L203.105 339.177Z" fill="#D0CDE1"/>
<path d="M200.06 343.223L200.836 343.748L203.05 340.806L202.274 340.281L200.06 343.223Z" fill="#D0CDE1"/>
<path d="M414.259 229.139H321.977C320.727 229.137 319.529 228.6 318.645 227.646C317.762 226.691 317.265 225.398 317.263 224.048V150.098C317.265 148.748 317.762 147.454 318.645 146.5C319.529 145.545 320.727 145.009 321.977 145.007H414.259C415.509 145.009 416.707 145.545 417.59 146.5C418.474 147.454 418.971 148.748 418.972 150.098V224.048C418.971 225.398 418.474 226.691 417.59 227.646C416.707 228.6 415.509 229.137 414.259 229.139V229.139Z" fill="white"/>
<path d="M334.576 193.267L352.182 193.571H362.437C362.892 193.57 363.327 193.38 363.648 193.042C363.969 192.704 364.15 192.246 364.151 191.769V191.139L355.32 181.15C355.163 180.972 354.974 180.83 354.764 180.731C354.553 180.633 354.327 180.58 354.096 180.575C353.866 180.571 353.638 180.615 353.424 180.706C353.211 180.796 353.017 180.931 352.854 181.103L344.169 190.239C343.939 190.48 343.628 190.616 343.304 190.616C342.98 190.616 342.669 190.481 342.439 190.24L341.154 188.89C340.832 188.553 340.396 188.363 339.942 188.364C339.488 188.364 339.052 188.554 338.731 188.891L334.576 193.267Z" fill="#FFCC63"/>
<path d="M414.259 229.139H321.977C320.727 229.137 319.529 228.6 318.645 227.646C317.762 226.691 317.265 225.398 317.263 224.048V150.098C317.265 148.748 317.762 147.454 318.645 146.5C319.529 145.545 320.727 145.009 321.977 145.007H414.259C415.509 145.009 416.707 145.545 417.59 146.5C418.474 147.454 418.971 148.748 418.972 150.098V224.048C418.971 225.398 418.474 226.691 417.59 227.646C416.707 228.6 415.509 229.137 414.259 229.139V229.139ZM321.977 146.615C321.122 146.616 320.302 146.983 319.697 147.636C319.093 148.289 318.753 149.174 318.752 150.098V224.048C318.753 224.971 319.093 225.857 319.697 226.51C320.302 227.163 321.122 227.53 321.977 227.531H414.259C415.114 227.53 415.934 227.163 416.538 226.51C417.143 225.857 417.483 224.971 417.484 224.048V150.098C417.483 149.174 417.143 148.289 416.538 147.636C415.934 146.983 415.114 146.616 414.259 146.615H321.977Z" fill="#3F3D56"/>
<path d="M403.781 158.003H332.455C332.061 158.003 331.683 157.859 331.404 157.602C331.125 157.346 330.969 156.998 330.969 156.635C330.969 156.272 331.125 155.924 331.404 155.668C331.683 155.411 332.061 155.267 332.455 155.267H403.781C404.175 155.267 404.553 155.411 404.832 155.668C405.11 155.924 405.267 156.272 405.267 156.635C405.267 156.998 405.11 157.346 404.832 157.602C404.553 157.859 404.175 158.003 403.781 158.003V158.003Z" fill="#3F3D56"/>
<path d="M403.795 166.895H333.162C332.771 166.895 332.397 166.751 332.121 166.494C331.845 166.238 331.69 165.89 331.69 165.527C331.69 165.164 331.845 164.816 332.121 164.56C332.397 164.303 332.771 164.159 333.162 164.159H403.795C404.186 164.159 404.56 164.303 404.836 164.56C405.112 164.816 405.267 165.164 405.267 165.527C405.267 165.89 405.112 166.238 404.836 166.494C404.56 166.751 404.186 166.895 403.795 166.895V166.895Z" fill="#3F3D56"/>
<path d="M404.488 175.787H369.979C369.581 175.787 369.199 175.643 368.918 175.386C368.637 175.13 368.478 174.782 368.478 174.419C368.478 174.056 368.637 173.708 368.918 173.452C369.199 173.195 369.581 173.051 369.979 173.051H404.488C404.886 173.051 405.267 173.195 405.549 173.452C405.83 173.708 405.988 174.056 405.988 174.419C405.988 174.782 405.83 175.13 405.549 175.386C405.267 175.643 404.886 175.787 404.488 175.787V175.787Z" fill="#3F3D56"/>
<path d="M404.517 184.679H370.671C370.281 184.679 369.907 184.499 369.631 184.178C369.355 183.857 369.2 183.422 369.2 182.969C369.2 182.515 369.355 182.08 369.631 181.76C369.907 181.439 370.281 181.259 370.671 181.259H404.517C404.907 181.259 405.281 181.439 405.557 181.76C405.833 182.08 405.988 182.515 405.988 182.969C405.988 183.422 405.833 183.857 405.557 184.178C405.281 184.499 404.907 184.679 404.517 184.679V184.679Z" fill="#3F3D56"/>
<path d="M405.209 193.571H370.7C370.302 193.571 369.921 193.391 369.639 193.07C369.358 192.749 369.2 192.314 369.2 191.861C369.2 191.407 369.358 190.972 369.639 190.652C369.921 190.331 370.302 190.151 370.7 190.151H405.209C405.607 190.151 405.989 190.331 406.27 190.652C406.551 190.972 406.71 191.407 406.71 191.861C406.71 192.314 406.551 192.749 406.27 193.07C405.989 193.391 405.607 193.571 405.209 193.571V193.571Z" fill="#3F3D56"/>
<path d="M405.224 202.463H333.898C333.503 202.463 333.125 202.283 332.847 201.962C332.568 201.641 332.412 201.206 332.412 200.753C332.412 200.299 332.568 199.864 332.847 199.544C333.125 199.223 333.503 199.043 333.898 199.043H405.224C405.618 199.043 405.996 199.223 406.274 199.544C406.553 199.864 406.71 200.299 406.71 200.753C406.71 201.206 406.553 201.641 406.274 201.962C405.996 202.283 405.618 202.463 405.224 202.463V202.463Z" fill="#3F3D56"/>
<path d="M405.224 211.355H333.898C333.503 211.355 333.125 211.175 332.847 210.854C332.568 210.533 332.412 210.098 332.412 209.645C332.412 209.191 332.568 208.756 332.847 208.436C333.125 208.115 333.503 207.935 333.898 207.935H405.224C405.618 207.935 405.996 208.115 406.274 208.436C406.553 208.756 406.71 209.191 406.71 209.645C406.71 210.098 406.553 210.533 406.274 210.854C405.996 211.175 405.618 211.355 405.224 211.355V211.355Z" fill="#3F3D56"/>
<path d="M405.945 220.247H334.619C334.225 220.247 333.847 220.066 333.568 219.746C333.289 219.425 333.133 218.99 333.133 218.537C333.133 218.083 333.289 217.648 333.568 217.327C333.847 217.007 334.225 216.827 334.619 216.827H405.945C406.339 216.827 406.717 217.007 406.996 217.327C407.274 217.648 407.431 218.083 407.431 218.537C407.431 218.99 407.274 219.425 406.996 219.746C406.717 220.066 406.339 220.247 405.945 220.247Z" fill="#3F3D56"/>
<path d="M362.413 194.255H334.871C334.461 194.256 334.057 194.145 333.698 193.931H333.691L333.566 193.85C333.212 193.613 332.921 193.282 332.719 192.889C332.516 192.496 332.411 192.054 332.412 191.604V175.701C332.412 174.999 332.672 174.325 333.133 173.828C333.594 173.331 334.219 173.052 334.871 173.051H362.413C363.065 173.052 363.69 173.331 364.151 173.828C364.612 174.325 364.871 174.999 364.872 175.701V191.604C364.871 192.307 364.612 192.981 364.151 193.478C363.69 193.974 363.065 194.254 362.413 194.255V194.255ZM334.027 192.908L334.098 192.955C334.329 193.113 334.597 193.196 334.871 193.195H362.413C362.804 193.194 363.179 193.026 363.455 192.728C363.732 192.43 363.888 192.026 363.888 191.604V175.701C363.888 175.28 363.732 174.876 363.455 174.577C363.179 174.279 362.804 174.112 362.413 174.111H334.871C334.479 174.112 334.104 174.279 333.828 174.577C333.551 174.876 333.396 175.28 333.395 175.701V191.604C333.395 191.861 333.452 192.113 333.562 192.34C333.672 192.567 333.832 192.762 334.027 192.908V192.908Z" fill="#3F3D56"/>
<path d="M126.146 76.0289C125.799 75.686 125.358 75.4412 124.872 75.3218C124.387 75.2025 123.876 75.2131 123.396 75.3527C122.917 75.4922 122.488 75.7552 122.156 76.1123C121.825 76.4694 121.605 76.9066 121.52 77.3753L119.258 91.5388C119.222 91.7475 119.144 91.9475 119.027 92.1274C118.903 92.3037 118.743 92.454 118.556 92.5691L103.518 101.868C103.023 102.158 102.647 102.599 102.452 103.119C102.257 103.639 102.255 104.206 102.446 104.727L102.453 104.747C102.636 105.271 102.997 105.723 103.48 106.031C103.964 106.339 104.541 106.487 105.123 106.45L113.997 106.084C114.289 106.074 114.578 106.137 114.835 106.269C115.092 106.401 115.307 106.596 115.457 106.834C115.568 107.005 115.639 107.197 115.667 107.397C115.695 107.596 115.678 107.799 115.617 107.992L107.564 134.845C107.447 135.234 107.432 135.645 107.523 136.04C107.613 136.435 107.805 136.803 108.082 137.111C108.362 137.422 108.715 137.665 109.113 137.821C109.511 137.977 109.943 138.042 110.372 138.009L177.362 132.87C177.967 132.825 178.539 132.589 178.987 132.2C179.244 131.977 179.451 131.708 179.597 131.409C179.743 131.109 179.824 130.785 179.835 130.455C179.846 130.125 179.787 129.797 179.662 129.489C179.538 129.181 179.349 128.9 179.107 128.662L178.428 127.987L126.146 76.0288L126.146 76.0289ZM122.581 77.5205C122.636 77.1847 122.81 76.8767 123.075 76.6472C123.39 76.374 123.805 76.2283 124.232 76.2412C124.659 76.254 125.064 76.4243 125.361 76.7159L177.626 128.658L178.322 129.349C178.566 129.593 178.717 129.908 178.749 130.244C178.765 130.442 178.74 130.642 178.675 130.832C178.61 131.021 178.506 131.197 178.37 131.348C178.233 131.5 178.066 131.624 177.878 131.714C177.691 131.804 177.486 131.858 177.276 131.873L110.287 137.012C110.098 137.026 109.908 137.009 109.725 136.962C109.523 136.912 109.333 136.824 109.166 136.704C109 136.583 108.86 136.433 108.756 136.261C108.651 136.089 108.584 135.899 108.558 135.702C108.531 135.505 108.546 135.305 108.602 135.114L116.655 108.261C116.738 107.996 116.771 107.72 116.753 107.444L176.079 130.604C176.278 130.684 176.497 130.707 176.71 130.668C176.922 130.63 177.118 130.532 177.272 130.388C177.371 130.295 177.45 130.185 177.503 130.063C177.556 129.941 177.583 129.81 177.582 129.678C177.581 129.545 177.553 129.415 177.498 129.294C177.442 129.172 177.362 129.063 177.262 128.971C177.219 128.93 177.171 128.894 177.121 128.862L120.172 92.2203C120.242 92.0474 120.292 91.8674 120.319 91.6838L122.581 77.5204L122.581 77.5205Z" fill="#E6E6E6"/>
<path d="M126.146 76.0289C125.799 75.686 125.358 75.4412 124.872 75.3218C124.387 75.2025 123.876 75.2131 123.396 75.3527C122.917 75.4922 122.488 75.7552 122.156 76.1123C121.825 76.4694 121.605 76.9066 121.52 77.3753L119.258 91.5388C119.222 91.7475 119.144 91.9475 119.027 92.1274C118.903 92.3037 118.743 92.454 118.556 92.5691L103.518 101.868C103.023 102.158 102.647 102.599 102.452 103.119C102.257 103.639 102.255 104.206 102.446 104.727L102.453 104.747C102.636 105.271 102.997 105.723 103.48 106.031C103.964 106.339 104.541 106.487 105.123 106.45L113.997 106.084C114.289 106.074 114.578 106.137 114.835 106.269C115.092 106.401 115.307 106.596 115.457 106.834C115.568 107.005 115.639 107.197 115.667 107.397C115.695 107.596 115.678 107.799 115.617 107.992L107.564 134.845C107.447 135.234 107.432 135.645 107.523 136.04C107.613 136.435 107.805 136.803 108.082 137.111C108.362 137.422 108.715 137.665 109.113 137.821C109.511 137.977 109.943 138.042 110.372 138.009L177.362 132.87C177.967 132.825 178.539 132.589 178.987 132.2C179.244 131.977 179.451 131.708 179.597 131.409C179.743 131.109 179.824 130.785 179.835 130.455C179.846 130.125 179.787 129.797 179.662 129.489C179.538 129.181 179.349 128.9 179.107 128.662L178.428 127.987L126.146 76.0288L126.146 76.0289ZM122.581 77.5205C122.636 77.1847 122.81 76.8767 123.075 76.6472C123.39 76.374 123.805 76.2283 124.232 76.2412C124.659 76.254 125.064 76.4243 125.361 76.7159L177.626 128.658L178.322 129.349C178.566 129.593 178.717 129.908 178.749 130.244C178.765 130.442 178.74 130.642 178.675 130.832C178.61 131.021 178.506 131.197 178.37 131.348C178.233 131.5 178.066 131.624 177.878 131.714C177.691 131.804 177.486 131.858 177.276 131.873L110.287 137.012C110.098 137.026 109.908 137.009 109.725 136.962C109.523 136.912 109.333 136.824 109.166 136.704C109 136.583 108.86 136.433 108.756 136.261C108.651 136.089 108.584 135.899 108.558 135.702C108.531 135.505 108.546 135.305 108.602 135.114L116.655 108.261C116.738 107.996 116.771 107.72 116.753 107.444C116.73 107.048 116.604 106.663 116.385 106.324C116.356 106.275 116.322 106.228 116.288 106.18L116.287 106.175C116.026 105.822 115.675 105.537 115.266 105.346C114.858 105.156 114.405 105.066 113.951 105.086L105.071 105.453C104.722 105.476 104.374 105.387 104.084 105.201C103.794 105.015 103.579 104.741 103.472 104.425L103.468 104.415C103.351 104.103 103.351 103.762 103.469 103.45C103.586 103.138 103.813 102.873 104.112 102.702L119.15 93.4027C119.309 93.3062 119.457 93.193 119.59 93.0653L119.595 93.0638C119.723 92.9422 119.836 92.808 119.934 92.6635C120.03 92.5244 120.109 92.3758 120.172 92.2203C120.242 92.0474 120.292 91.8674 120.319 91.6838L122.581 77.5204V77.5205Z" fill="#CCCCCC"/>
<path d="M120.172 92.2204L177.121 128.862C177.171 128.894 177.219 128.93 177.262 128.971C177.416 129.111 177.521 129.293 177.562 129.492C177.604 129.69 177.58 129.896 177.494 130.081C177.377 130.327 177.164 130.519 176.899 130.617C176.634 130.715 176.34 130.71 176.078 130.604L116.753 107.444L115.705 107.036L116.123 106.115L116.287 106.175L116.288 106.18L176.495 129.679L119.595 93.0638L119.59 93.0654L119.345 92.9043L119.957 92.0812L120.172 92.2204Z" fill="#CCCCCC"/>
<path d="M248.84 352.655C248.479 352.729 248.148 352.898 247.884 353.143C247.621 353.388 247.435 353.698 247.348 354.038C247.262 354.378 247.278 354.734 247.395 355.066C247.513 355.397 247.726 355.691 248.011 355.913L256.687 362.666C256.814 362.767 256.919 362.889 256.996 363.028C257.068 363.168 257.109 363.32 257.116 363.476L257.733 375.947C257.746 376.355 257.902 376.747 258.178 377.061C258.454 377.374 258.833 377.59 259.254 377.675L259.269 377.678C259.685 377.772 260.123 377.731 260.512 377.563C260.901 377.394 261.219 377.106 261.415 376.746L264.495 371.343C264.599 371.166 264.751 371.018 264.936 370.916C265.121 370.814 265.332 370.761 265.546 370.764C265.704 370.764 265.86 370.795 266.004 370.854C266.149 370.914 266.278 371.002 266.385 371.111L281.423 386.147C281.64 386.365 281.91 386.53 282.209 386.627C282.509 386.725 282.828 386.751 283.141 386.705C283.452 386.66 283.748 386.543 284.002 386.367C284.257 386.19 284.463 385.958 284.603 385.69L306.253 343.999C306.417 343.685 306.484 343.334 306.447 342.985C306.409 342.637 306.269 342.306 306.042 342.03C305.814 341.754 305.51 341.544 305.162 341.425C304.815 341.306 304.439 341.282 304.078 341.356L303.37 341.501L248.84 352.655H248.84ZM248.507 355.339C248.336 355.205 248.208 355.029 248.138 354.83C248.068 354.63 248.059 354.416 248.111 354.212C248.163 354.008 248.275 353.822 248.433 353.676C248.592 353.529 248.791 353.428 249.007 353.383L303.52 342.233L304.246 342.085C304.462 342.041 304.687 342.056 304.894 342.128C305.102 342.199 305.284 342.325 305.42 342.49C305.556 342.655 305.641 342.853 305.664 343.062C305.687 343.27 305.648 343.48 305.551 343.669L283.901 385.36C283.817 385.521 283.693 385.66 283.54 385.766C283.387 385.872 283.209 385.942 283.022 385.969C282.835 385.995 282.643 385.979 282.464 385.921C282.285 385.863 282.123 385.764 281.993 385.634L266.955 370.599C266.808 370.448 266.635 370.323 266.443 370.228L304.249 343.895C304.398 343.793 304.505 343.646 304.551 343.478C304.597 343.31 304.58 343.131 304.502 342.974C304.424 342.817 304.291 342.69 304.125 342.616C303.96 342.542 303.772 342.525 303.595 342.569C303.551 342.579 303.509 342.593 303.468 342.611L257.488 362.384C257.398 362.276 257.295 362.178 257.182 362.092L248.507 355.339V355.339Z" fill="#E6E6E6"/>
<path d="M248.84 352.655C248.479 352.729 248.148 352.898 247.884 353.143C247.621 353.388 247.435 353.698 247.348 354.038C247.262 354.378 247.278 354.734 247.395 355.066C247.513 355.397 247.726 355.691 248.011 355.913L256.687 362.666C256.814 362.767 256.919 362.889 256.996 363.028C257.068 363.168 257.109 363.32 257.116 363.476L257.733 375.947C257.746 376.355 257.902 376.747 258.178 377.061C258.454 377.374 258.833 377.59 259.254 377.675L259.269 377.678C259.685 377.772 260.123 377.731 260.512 377.563C260.901 377.394 261.219 377.106 261.415 376.746L264.495 371.343C264.599 371.166 264.751 371.018 264.936 370.916C265.121 370.814 265.332 370.761 265.546 370.764C265.704 370.764 265.86 370.795 266.004 370.854C266.149 370.914 266.278 371.002 266.385 371.111L281.423 386.147C281.64 386.365 281.91 386.53 282.209 386.627C282.509 386.725 282.828 386.751 283.141 386.705C283.452 386.66 283.748 386.543 284.002 386.367C284.257 386.19 284.463 385.958 284.603 385.69L306.253 343.999C306.417 343.685 306.484 343.334 306.447 342.985C306.409 342.637 306.269 342.306 306.042 342.03C305.814 341.754 305.51 341.544 305.162 341.425C304.815 341.306 304.439 341.282 304.078 341.356L303.37 341.501L248.84 352.655H248.84ZM248.507 355.339C248.336 355.205 248.208 355.029 248.138 354.83C248.068 354.63 248.059 354.416 248.111 354.212C248.163 354.008 248.275 353.822 248.433 353.676C248.592 353.529 248.791 353.428 249.007 353.383L303.52 342.233L304.246 342.085C304.462 342.041 304.687 342.056 304.894 342.128C305.102 342.199 305.284 342.325 305.42 342.49C305.556 342.655 305.641 342.853 305.664 343.062C305.687 343.27 305.648 343.48 305.551 343.669L283.901 385.36C283.817 385.521 283.693 385.66 283.54 385.766C283.387 385.872 283.209 385.942 283.022 385.969C282.835 385.995 282.643 385.979 282.464 385.921C282.285 385.863 282.123 385.764 281.993 385.634L266.955 370.599C266.808 370.448 266.635 370.323 266.443 370.228C266.168 370.091 265.862 370.019 265.552 370.019C265.508 370.017 265.463 370.019 265.419 370.021L265.415 370.02C265.082 370.038 264.759 370.137 264.478 370.307C264.197 370.476 263.966 370.711 263.807 370.989L260.726 376.395C260.608 376.612 260.417 376.785 260.182 376.886C259.948 376.987 259.685 377.01 259.435 376.951L259.427 376.95C259.174 376.901 258.946 376.771 258.78 376.583C258.615 376.394 258.522 376.158 258.516 375.913L257.9 363.442C257.894 363.31 257.874 363.18 257.838 363.052L257.839 363.049C257.805 362.926 257.757 362.808 257.696 362.695C257.639 362.585 257.569 362.481 257.488 362.384C257.398 362.276 257.295 362.178 257.182 362.092L248.507 355.339H248.507Z" fill="#CCCCCC"/>
<path d="M257.488 362.384L303.468 342.611C303.509 342.593 303.551 342.579 303.595 342.569C303.772 342.526 303.96 342.542 304.126 342.616C304.291 342.69 304.424 342.817 304.502 342.974C304.58 343.132 304.597 343.31 304.551 343.478C304.505 343.646 304.398 343.793 304.249 343.895L266.443 370.228L265.776 370.694L265.313 370.094L265.415 370.02L265.418 370.021L303.783 343.294L257.839 363.049L257.838 363.052L257.638 363.136L257.314 362.458L257.488 362.384Z" fill="#CCCCCC"/>
<path d="M244.187 81.2281C242.875 82.5081 241.403 83.1481 239.771 83.1481C238.203 83.1481 236.939 82.7001 235.979 81.8041C235.019 80.9081 234.075 79.4841 233.147 77.5321L229.499 69.8041C229.211 69.1641 228.843 68.7001 228.395 68.4121C227.979 68.1241 227.259 67.7881 226.235 67.4041C225.627 67.1801 225.323 66.8121 225.323 66.3001C225.323 65.9801 225.387 65.7081 225.515 65.4841C225.643 65.2601 225.835 65.1481 226.091 65.1481C226.219 65.1481 226.475 65.2121 226.859 65.3401C227.275 65.4361 227.803 65.4841 228.443 65.4841C230.843 65.4841 232.715 64.8121 234.059 63.4681C235.403 62.0921 236.075 60.2681 236.075 57.9961C236.075 55.6601 235.355 53.7561 233.915 52.2841C232.507 50.7801 230.507 50.0281 227.915 50.0281C225.483 50.0281 224.267 50.7641 224.267 52.2361V72.8281C224.267 74.7481 224.427 76.3001 224.747 77.4841C225.067 78.6361 225.627 79.7561 226.427 80.8441L227.051 81.7081L226.427 82.4761H215.915L215.339 80.8441L216.443 80.5561C217.659 80.2361 218.475 79.7721 218.891 79.1641C219.307 78.5561 219.515 77.5321 219.515 76.0921V52.3801C219.515 51.9641 219.435 51.6761 219.275 51.5161C219.115 51.3241 218.843 51.2281 218.459 51.2281H215.675L215.099 49.4521C216.475 48.9081 218.283 48.4281 220.523 48.0121C222.795 47.5641 224.971 47.3401 227.051 47.3401C231.787 47.3401 235.307 48.3161 237.611 50.2681C239.915 52.2201 241.067 54.7481 241.067 57.8521C241.067 60.2201 240.411 62.2841 239.099 64.0441C237.787 65.8041 235.851 66.9881 233.291 67.5961C233.995 68.0761 234.635 68.8601 235.211 69.9481L239.675 79.0201C240.187 80.0121 240.795 80.5081 241.499 80.5081C242.107 80.5081 242.731 80.2841 243.371 79.8361L244.187 81.2281ZM249.498 50.8921C249.498 50.2841 249.834 49.6121 250.506 48.8761C251.21 48.1081 251.85 47.7241 252.426 47.7241C253.034 47.7241 253.69 48.0921 254.394 48.8281C255.098 49.5641 255.45 50.2521 255.45 50.8921C255.45 51.5001 255.098 52.1721 254.394 52.9081C253.69 53.6441 253.034 54.0121 252.426 54.0121C251.882 54.0121 251.258 53.6441 250.554 52.9081C249.85 52.1721 249.498 51.5001 249.498 50.8921ZM254.586 78.2521C254.586 79.3401 255.066 79.8841 256.026 79.8841C256.826 79.8841 257.626 79.5481 258.426 78.8761L259.338 80.1241C258.506 81.0521 257.61 81.7881 256.65 82.3321C255.69 82.8761 254.794 83.1481 253.962 83.1481C252.65 83.1481 251.706 82.7481 251.13 81.9481C250.554 81.1481 250.266 79.8521 250.266 78.0601V63.1801C250.266 62.7961 250.186 62.5241 250.026 62.3641C249.898 62.2041 249.658 62.1241 249.306 62.1241H247.194L246.762 60.8761C247.69 60.0441 248.746 59.3561 249.93 58.8121C251.114 58.2681 252.17 57.9961 253.098 57.9961C253.546 57.9961 253.914 58.1401 254.202 58.4281C254.49 58.7161 254.634 59.0841 254.634 59.5321L254.586 78.2521ZM274.243 93.3241C276.227 93.3241 277.683 92.5081 278.611 90.8761C279.539 89.2441 280.003 87.0521 280.003 84.3001V76.6681C278.691 78.5241 277.347 79.8361 275.971 80.6041C274.595 81.3721 273.107 81.7561 271.507 81.7561C269.971 81.7561 268.547 81.3721 267.235 80.6041C265.923 79.8041 264.867 78.6361 264.067 77.1001C263.299 75.5641 262.915 73.6921 262.915 71.4841C262.915 68.7321 263.411 66.3481 264.403 64.3321C265.427 62.2841 266.867 60.7161 268.723 59.6281C270.611 58.5401 272.819 57.9961 275.347 57.9961C276.595 57.9961 278.355 58.2041 280.627 58.6201C282.547 58.9401 283.987 59.1321 284.947 59.1961L285.475 59.8201L284.899 60.6841C284.675 61.0041 284.515 61.3081 284.419 61.5961C284.323 61.8521 284.275 62.1721 284.275 62.5561V83.5321C284.275 87.4681 283.315 90.4921 281.395 92.6041C279.507 94.7481 276.915 95.8201 273.619 95.8201C271.859 95.8201 270.355 95.4841 269.107 94.8121C267.859 94.1721 266.931 93.3241 266.323 92.2681C265.715 91.2441 265.411 90.1401 265.411 88.9561C265.411 87.3561 265.955 85.9801 267.043 84.8281C268.131 83.7081 269.619 83.1481 271.507 83.1481C271.827 83.1481 272.051 83.1961 272.179 83.2921C272.339 83.4201 272.419 83.5481 272.419 83.6761C272.419 83.8041 272.195 84.1081 271.747 84.5881C271.299 85.0681 270.899 85.6441 270.547 86.3161C270.227 86.9881 270.067 87.8361 270.067 88.8601C270.067 90.1401 270.435 91.1961 271.171 92.0281C271.939 92.8921 272.963 93.3241 274.243 93.3241ZM267.955 70.5721C267.955 73.1321 268.467 75.0201 269.491 76.2361C270.547 77.4521 271.859 78.0601 273.427 78.0601C274.707 78.0601 275.907 77.7081 277.027 77.0041C278.147 76.2681 279.139 75.1641 280.003 73.6921V62.1241C278.531 61.1321 276.963 60.6361 275.299 60.6361C272.963 60.6361 271.155 61.5161 269.875 63.2761C268.595 65.0041 267.955 67.4361 267.955 70.5721ZM294.094 50.1241C294.094 49.7401 294.014 49.4681 293.854 49.3081C293.726 49.1481 293.486 49.0681 293.134 49.0681H291.022L290.59 47.8201C291.518 46.9881 292.574 46.3001 293.758 45.7561C294.974 45.2121 296.03 44.9401 296.926 44.9401C297.374 44.9401 297.742 45.0841 298.03 45.3721C298.318 45.6601 298.462 46.0281 298.462 46.4761V65.1481C299.294 63.0681 300.542 61.3561 302.206 60.0121C303.87 58.6681 305.614 57.9961 307.438 57.9961C309.774 57.9961 311.422 58.6841 312.382 60.0601C313.374 61.4361 313.87 63.6601 313.87 66.7321V78.3481C313.87 79.4361 314.35 79.9801 315.31 79.9801C316.11 79.9801 316.91 79.6441 317.71 78.9721L318.622 80.2201C317.79 81.1481 316.894 81.8841 315.934 82.4281C314.974 82.9721 314.078 83.2441 313.246 83.2441C311.934 83.2441 310.99 82.8441 310.414 82.0441C309.838 81.2441 309.55 79.9481 309.55 78.1561V66.7321C309.55 65.0361 309.23 63.7881 308.59 62.9881C307.982 62.1561 306.926 61.7401 305.422 61.7401C304.046 61.7401 302.83 62.2841 301.774 63.3721C300.75 64.4601 299.934 65.9961 299.326 67.9801C298.75 69.9641 298.462 72.2361 298.462 74.7961C298.462 76.3001 298.574 77.5001 298.798 78.3961C299.022 79.2921 299.422 80.1561 299.998 80.9881L300.574 81.7561L299.998 82.4761H291.598L291.07 80.9881L292.078 80.7481C292.878 80.5561 293.406 80.2201 293.662 79.7401C293.95 79.2281 294.094 78.3641 294.094 77.1481V50.1241ZM334.926 58.6201C334.926 59.2921 334.83 59.9001 334.638 60.4441C334.446 60.9881 334.174 61.3881 333.822 61.6441H328.686V77.1001C328.686 78.0921 328.83 78.7961 329.118 79.2121C329.406 79.6281 329.87 79.8361 330.51 79.8361C331.47 79.8361 332.558 79.3241 333.774 78.3001L334.686 79.5481C333.854 80.6361 332.862 81.5161 331.71 82.1881C330.558 82.8281 329.47 83.1481 328.446 83.1481C327.134 83.1481 326.11 82.7481 325.374 81.9481C324.67 81.1161 324.318 79.9801 324.318 78.5401V61.6441H320.094C320.094 60.7801 320.158 60.2201 320.286 59.9641C320.414 59.7081 320.734 59.5161 321.246 59.3881C322.942 58.9401 324.142 58.2201 324.846 57.2281C325.582 56.2041 326.11 54.8921 326.43 53.2921C326.526 52.7801 326.686 52.4601 326.91 52.3321C327.166 52.2041 327.758 52.1401 328.686 52.1401V58.6201H334.926Z" fill="#A0616A"/>
<path d="M351.304 70.5721C351.304 68.0121 351.768 65.7881 352.696 63.9001C353.656 62.0121 355.016 60.5561 356.776 59.5321C358.568 58.5081 360.648 57.9961 363.016 57.9961C365.384 57.9961 367.448 58.5081 369.208 59.5321C370.968 60.5561 372.328 62.0121 373.288 63.9001C374.248 65.7881 374.728 68.0121 374.728 70.5721C374.728 73.1001 374.248 75.3241 373.288 77.2441C372.328 79.1321 370.968 80.5881 369.208 81.6121C367.448 82.6361 365.384 83.1481 363.016 83.1481C360.648 83.1481 358.568 82.6361 356.776 81.6121C355.016 80.5881 353.656 79.1321 352.696 77.2441C351.768 75.3241 351.304 73.1001 351.304 70.5721ZM369.688 70.7161C369.688 69.2121 369.48 67.6761 369.064 66.1081C368.648 64.5401 367.944 63.2121 366.952 62.1241C365.992 61.0361 364.728 60.4921 363.16 60.4921C361.816 60.4921 360.616 60.9241 359.56 61.7881C358.536 62.6201 357.736 63.8041 357.16 65.3401C356.584 66.8761 356.296 68.6361 356.296 70.6201C356.296 73.6601 356.888 76.0761 358.072 77.8681C359.256 79.6601 360.856 80.5561 362.872 80.5561C364.184 80.5561 365.352 80.1561 366.376 79.3561C367.432 78.5241 368.248 77.3721 368.824 75.9001C369.4 74.3961 369.688 72.6681 369.688 70.7161ZM386.974 65.1481C387.518 63.0041 388.35 61.2761 389.47 59.9641C390.622 58.6521 391.87 57.9961 393.214 57.9961C394.558 57.9961 395.662 58.4441 396.526 59.3401C397.422 60.2041 397.87 61.3881 397.87 62.8921C397.87 64.1081 397.422 65.1321 396.526 65.9641C395.63 66.7961 394.51 67.2121 393.166 67.2121C392.558 67.2121 392.254 67.0361 392.254 66.6841C392.254 66.5881 392.382 66.3481 392.638 65.9641C392.926 65.5801 393.15 65.1801 393.31 64.7641C393.502 64.3481 393.598 63.8841 393.598 63.3721C393.598 62.7961 393.438 62.3481 393.118 62.0281C392.83 61.6761 392.462 61.5001 392.014 61.5001C391.246 61.5001 390.446 61.9641 389.614 62.8921C388.814 63.7881 388.126 65.2601 387.55 67.3081C386.974 69.3241 386.686 71.8841 386.686 74.9881C386.686 76.4281 386.798 77.5961 387.022 78.4921C387.246 79.3561 387.646 80.1881 388.222 80.9881L388.798 81.7561L388.222 82.4761H379.822L379.294 80.9881L380.302 80.7481C381.102 80.5561 381.63 80.2201 381.886 79.7401C382.174 79.2281 382.318 78.3641 382.318 77.1481V63.6601C382.318 63.2761 382.238 63.0041 382.078 62.8441C381.95 62.6841 381.71 62.6041 381.358 62.6041H379.246L378.814 61.3561C379.742 60.5241 380.798 59.8361 381.982 59.2921C383.198 58.7481 384.254 58.4761 385.15 58.4761C385.598 58.4761 385.966 58.6201 386.254 58.9081C386.542 59.1961 386.686 59.5641 386.686 60.0121V65.1481H386.974ZM421.914 76.0921C421.914 77.1161 421.994 77.8841 422.154 78.3961C422.314 78.9081 422.602 79.2601 423.018 79.4521C423.466 79.6441 424.122 79.7401 424.986 79.7401H429.162C430.314 79.7401 431.21 79.6281 431.85 79.4041C432.49 79.1481 432.986 78.7321 433.338 78.1561C433.722 77.5481 434.074 76.6521 434.394 75.4681L434.682 74.3641L436.314 74.9401V83.1481L435.354 83.6761L434.97 83.1481C434.618 82.7001 433.946 82.4761 432.954 82.4761H413.754L413.226 80.9401L414.234 80.6521C415.418 80.3001 416.202 79.8521 416.586 79.3081C416.97 78.7641 417.162 77.8041 417.162 76.4281V54.3961C417.162 52.9241 416.954 51.9001 416.538 51.3241C416.122 50.7481 415.306 50.2841 414.09 49.9321L412.986 49.6441L413.562 48.0121H424.074L424.698 48.7801L424.074 49.6441C423.274 50.7001 422.714 51.8201 422.394 53.0041C422.074 54.1881 421.914 55.7401 421.914 57.6601V76.0921ZM460.161 78.8761C458.977 80.2521 457.569 81.3081 455.937 82.0441C454.305 82.7801 452.545 83.1481 450.657 83.1481C448.449 83.1481 446.513 82.6361 444.849 81.6121C443.185 80.5881 441.889 79.1481 440.961 77.2921C440.065 75.4361 439.617 73.2921 439.617 70.8601C439.617 68.3001 440.129 66.0601 441.153 64.1401C442.177 62.1881 443.617 60.6841 445.473 59.6281C447.361 58.5401 449.553 57.9961 452.049 57.9961C453.809 57.9961 455.297 58.3321 456.513 59.0041C457.761 59.6441 458.689 60.5081 459.297 61.5961C459.905 62.6521 460.209 63.8041 460.209 65.0521C460.209 66.3961 459.841 67.6921 459.105 68.9401C458.401 70.1881 457.361 71.2121 455.985 72.0121C454.609 72.7801 452.961 73.1641 451.041 73.1641C450.017 73.1641 448.881 72.9721 447.633 72.5881C446.385 72.2041 445.761 71.6441 445.761 70.9081C445.761 70.6521 445.825 70.4121 445.953 70.1881C446.113 69.9641 446.289 69.8521 446.481 69.8521C446.577 69.8521 446.897 69.9641 447.441 70.1881C447.985 70.3801 448.689 70.4761 449.553 70.4761C451.473 70.4761 452.961 69.9321 454.017 68.8441C455.105 67.7561 455.649 66.4761 455.649 65.0041C455.649 63.7561 455.249 62.6841 454.449 61.7881C453.649 60.8601 452.529 60.3961 451.089 60.3961C449.041 60.3961 447.441 61.3081 446.289 63.1321C445.137 64.9241 444.561 67.5001 444.561 70.8601C444.561 73.7081 445.169 75.9481 446.385 77.5801C447.601 79.1801 449.361 79.9801 451.665 79.9801C454.481 79.9801 456.817 79.0681 458.673 77.2441C458.801 77.1161 458.945 77.0521 459.105 77.0521C459.361 77.0521 459.633 77.2121 459.921 77.5321C460.209 77.8201 460.353 78.1241 460.353 78.4441C460.353 78.6041 460.289 78.7481 460.161 78.8761ZM468.095 58.6201C468.095 54.3641 468.847 51.0201 470.351 48.5881C471.855 46.1561 474.079 44.9401 477.023 44.9401C479.103 44.9401 480.815 45.4361 482.159 46.4281C483.503 47.4201 484.175 48.7001 484.175 50.2681C484.175 51.6441 483.727 52.7801 482.831 53.6761C481.967 54.5401 480.847 54.9721 479.471 54.9721C478.863 54.9721 478.559 54.7961 478.559 54.4441C478.559 54.3481 478.671 54.1241 478.895 53.7721C479.119 53.4201 479.311 52.9881 479.471 52.4761C479.631 51.9641 479.711 51.3081 479.711 50.5081C479.711 49.4841 479.423 48.6681 478.847 48.0601C478.271 47.4201 477.487 47.1001 476.495 47.1001C475.087 47.1001 474.047 47.8041 473.375 49.2121C472.735 50.5881 472.415 52.5081 472.415 54.9721V58.6201H479.135C479.135 59.2921 479.039 59.9001 478.847 60.4441C478.655 60.9881 478.383 61.3881 478.031 61.6441H472.415V83.1001C472.415 86.4281 471.679 89.0521 470.207 90.9721C468.767 92.9241 466.623 93.9001 463.775 93.9001C462.047 93.9001 460.623 93.4521 459.503 92.5561C458.383 91.6921 457.823 90.5081 457.823 89.0041C457.823 87.7881 458.271 86.7641 459.167 85.9321C460.063 85.1001 461.183 84.6841 462.527 84.6841C463.135 84.6841 463.439 84.8601 463.439 85.2121C463.439 85.3081 463.311 85.5161 463.055 85.8361C462.799 86.1881 462.575 86.5721 462.383 86.9881C462.191 87.4361 462.095 87.9961 462.095 88.6681C462.095 89.6601 462.351 90.4281 462.863 90.9721C463.343 91.5481 463.967 91.8361 464.735 91.8361C465.695 91.8361 466.495 91.4041 467.135 90.5401C467.775 89.7081 468.095 88.4601 468.095 86.7961V61.6441H463.871C463.871 60.7801 463.935 60.2201 464.063 59.9641C464.191 59.7081 464.511 59.5161 465.023 59.3881L468.095 58.6201ZM494.254 58.6201C494.254 59.2921 494.158 59.9001 493.966 60.4441C493.774 60.9881 493.502 61.3881 493.15 61.6441H488.014V77.1001C488.014 78.0921 488.158 78.7961 488.446 79.2121C488.734 79.6281 489.198 79.8361 489.838 79.8361C490.798 79.8361 491.886 79.3241 493.102 78.3001L494.014 79.5481C493.182 80.6361 492.19 81.5161 491.038 82.1881C489.886 82.8281 488.798 83.1481 487.774 83.1481C486.462 83.1481 485.438 82.7481 484.702 81.9481C483.998 81.1161 483.646 79.9801 483.646 78.5401V61.6441H479.422C479.422 60.7801 479.486 60.2201 479.614 59.9641C479.742 59.7081 480.062 59.5161 480.574 59.3881C482.27 58.9401 483.47 58.2201 484.174 57.2281C484.91 56.2041 485.438 54.8921 485.758 53.2921C485.854 52.7801 486.014 52.4601 486.238 52.3321C486.494 52.2041 487.086 52.1401 488.014 52.1401V58.6201H494.254Z" fill="#575A89"/>
</svg>
